<svg width="28" height="22" viewBox="0 0 28 22" fill="none" xmlns="http://www.w3.org/2000/svg">
<path d="M22.5346 17.6123C22.6849 18.1729 23.481 18.1729 23.6314 17.6123L27.9595 1.47288C28.1587 0.729755 27.5983 0 26.8284 0H24.1599C23.6299 0 23.1659 0.355691 23.0288 0.867216L20.5881 9.9685C20.5542 10.0947 20.5542 10.2277 20.5881 10.3539L22.5346 17.6123Z" fill="white"/>
<path d="M7.40874 9.9567C7.4426 10.0829 7.4426 10.2159 7.40874 10.3421L5.46228 17.6005C5.31194 18.1611 4.51579 18.1611 4.36545 17.6005L0.0405454 1.47288C-0.158736 0.729755 0.401679 0 1.17164 0H3.84014C4.37014 0 4.83406 0.35569 4.97124 0.867216L7.40874 9.9567Z" fill="white"/>
<path d="M11.0572 21.16C10.9247 21.6555 10.4767 22 9.96483 22H7.23405C6.49046 22 5.94924 21.2931 6.1417 20.5733L11.3966 0.918773C11.5415 0.376838 12.0316 0 12.5914 0H15.7675C16.3274 0 16.8174 0.376837 16.9623 0.918772L22.2172 20.5733C22.4097 21.2931 21.8685 22 21.1249 22H18.3941C17.8822 22 17.4342 21.6555 17.3017 21.16L14.7086 11.461C14.5635 10.9185 13.7954 10.9185 13.6504 11.461L11.0572 21.16Z" fill="white"/>
<path d="M13.2204 19.1148C13.025 19.1148 12.8828 18.9386 12.9334 18.7592L13.8924 15.3569C13.9711 15.0778 14.3878 15.0778 14.4665 15.3569L15.4256 18.7592C15.4762 18.9386 15.3339 19.1148 15.1385 19.1148H13.2204Z" fill="white"/>
</svg>
