<svg width="407" height="127" viewBox="0 0 407 127" fill="none" xmlns="http://www.w3.org/2000/svg" class="tw-h-[40px] tw-w-[102px]"><path fill-rule="evenodd" clip-rule="evenodd" d="M145.05 51.07C146.16 51.25 146.92 52.37 146.76 53.57C146.59 54.77 145.56 55.6 144.45 55.42L85.57 45.61C91.89 53.93 101.54 60.79 111.37 63.09L179.63 75.69L93.35 123.01C103.86 127.7 115.75 126.79 125.51 120.65L127.3 119.45L159.11 98.06C159.99 97.47 161.16 97.76 161.71 98.71C162.26 99.67 161.99 100.92 161.11 101.52L128.1 123.72C137.2 127.79 147.55 126.47 155.49 120.35L180.62 99.4C181.44 98.71 182.63 98.88 183.26 99.77C183.9 100.66 183.74 101.94 182.92 102.63L157.27 124.01C166.2 125.07 177.98 122.38 185.32 116.54C193.81 109.2 204.41 98.5 213.69 93.62C219.44 90.6 225.84 89.06 233.85 90.17C239.31 92.21 245.06 93.18 250.83 93.02C254.63 93.72 257.96 96.11 260.03 99.57C261.23 94.01 259.01 87.56 253.95 85.91C254.02 83.89 253.12 82.02 251.63 80.92L250.26 80.19L213.68 60.76C196.51 51.64 179.34 42.51 162.17 33.39C154.46 29.51 146.41 26.47 138.15 24.32C133.15 23.02 128.75 22.32 123.66 21.44L0 0C6.79 9.37 15.76 14.52 26.45 16.35L113.74 31.33C114.85 31.52 115.6 32.64 115.42 33.84C115.24 35.04 114.21 35.85 113.1 35.66L43.81 23.77C48.93 31.14 56.44 36.11 64.81 37.7L66.14 37.92L145.05 51.07Z" fill="url(#paint0_linear_264_5206)"></path><path fill-rule="evenodd" clip-rule="evenodd" d="M365.83 23.64L295.69 35.94C294.61 36.12 293.6 35.31 293.44 34.11C293.27 32.91 294.01 31.79 295.09 31.61L384.79 15.88C393.62 13.95 401.46 8.27 406.6 0L278.4 23.19C278.4 23.19 278.4 23.19 278.39 23.19C268.11 25.05 261.25 27.63 251.91 32.54L210.11 54.51L244.79 72.74C264.39 68.91 282.39 66.26 302 62.43C311.38 60.31 319.62 54.07 324.8 45.08L264.89 55.59C263.81 55.77 262.8 54.96 262.64 53.76C262.47 52.56 263.21 51.44 264.29 51.26L342.13 37.61C351.12 35.78 359.41 30.91 365.85 23.65L365.83 23.64Z" fill="url(#paint1_linear_264_5206)"></path><defs><linearGradient id="paint0_linear_264_5206" x1="0" y1="63.03" x2="260.31" y2="63.03" gradientUnits="userSpaceOnUse"><stop stop-color="#C99A4F"></stop><stop offset="0.25" stop-color="#F5E17B"></stop><stop offset="0.52" stop-color="#F6F2C1"></stop><stop offset="0.78" stop-color="#F5E17B"></stop><stop offset="1" stop-color="#C99A4F"></stop></linearGradient><linearGradient id="paint1_linear_264_5206" x1="210.1" y1="36.37" x2="406.59" y2="36.37" gradientUnits="userSpaceOnUse"><stop stop-color="#C99A4F"></stop><stop offset="0.25" stop-color="#F5E17B"></stop><stop offset="0.52" stop-color="#F6F2C1"></stop><stop offset="0.78" stop-color="#F5E17B"></stop><stop offset="1" stop-color="#C99A4F"></stop></linearGradient></defs></svg>