<svg width="96" height="97" viewBox="0 0 96 97" fill="none" xmlns="http://www.w3.org/2000/svg">
<path fill-rule="evenodd" clip-rule="evenodd" d="M44.0346 73.2624C43.8595 73.9159 44.3519 74.5576 45.0285 74.5576H50.9539C51.6304 74.5576 52.1229 73.9159 51.9478 73.2624L48.985 62.2053C48.7126 61.1885 47.2698 61.1885 46.9973 62.2053L44.0346 73.2624Z" fill="#0364FF"/>
<path fill-rule="evenodd" clip-rule="evenodd" d="M38.1345 80.3396C37.6807 82.033 36.1461 83.2106 34.3929 83.2106H26.3726C23.8256 83.2106 21.9719 80.7947 22.6311 78.3345L39.0844 16.9299C39.5807 15.0777 41.2591 13.7897 43.1767 13.7897H52.7219C54.6394 13.7897 56.3179 15.0777 56.8142 16.9299L73.2675 78.3345C73.9267 80.7947 72.0729 83.2106 69.526 83.2106H61.5056C59.7524 83.2106 58.2178 82.033 57.7641 80.3396L49.7616 50.4738C49.2648 48.6197 46.6338 48.6197 46.137 50.4738L38.1345 80.3396Z" fill="#0364FF"/>
<path fill-rule="evenodd" clip-rule="evenodd" d="M78.4774 68.7685C77.9646 70.6824 75.2487 70.6824 74.7359 68.7685L68.7626 46.4759C68.6471 46.0449 68.6471 45.591 68.7626 45.16L76.3751 16.75C76.843 15.0036 78.4256 13.7893 80.2335 13.7893H88.0032C90.6298 13.7893 92.5415 16.2807 91.8617 18.8178L78.4774 68.7685ZM27.2274 46.4387C27.3429 46.0077 27.3429 45.5539 27.2274 45.1228L19.6249 16.75C19.157 15.0036 17.5744 13.7893 15.7665 13.7893H7.99677C5.37023 13.7893 3.45851 16.2807 4.13831 18.8178L17.5126 68.7313C18.0254 70.6452 20.7413 70.6452 21.2541 68.7313L27.2274 46.4387Z" fill="#0364FF"/>
</svg>
