<svg width="39" height="32" viewBox="0 0 39 32" fill="none" xmlns="http://www.w3.org/2000/svg">
<path d="M31.1497 25.1699C31.3543 25.9407 32.4375 25.9407 32.6421 25.1699L38.531 2.9819C38.8022 1.96028 38.0397 0.957031 36.992 0.957031H33.3612C32.64 0.957031 32.0088 1.44602 31.8221 2.14926L28.5013 14.6614C28.4552 14.835 28.4552 15.0177 28.5013 15.1913L31.1497 25.1699Z" fill="#0364FF"/>
<path d="M10.5689 14.6452C10.615 14.8188 10.615 15.0015 10.5689 15.1751L7.92048 25.1537C7.71592 25.9244 6.63265 25.9244 6.42809 25.1537L0.543449 2.9819C0.272298 1.96028 1.03482 0.957031 2.08247 0.957031H5.71333C6.43447 0.957031 7.0657 1.44602 7.25235 2.14925L10.5689 14.6452Z" fill="#0364FF"/>
<path d="M15.5331 30.0472C15.3529 30.7283 14.7433 31.202 14.0468 31.202H10.3312C9.31946 31.202 8.58306 30.2302 8.84492 29.2406L15.995 2.22013C16.1922 1.4751 16.8589 0.957031 17.6206 0.957031H21.9422C22.7039 0.957031 23.3707 1.4751 23.5678 2.22013L30.7179 29.2406C30.9798 30.2302 30.2434 31.202 29.2316 31.202H25.516C24.8196 31.202 24.21 30.7283 24.0297 30.0472L20.5014 16.7133C20.304 15.9674 19.2589 15.9674 19.0615 16.7133L15.5331 30.0472Z" fill="#0364FF"/>
<path d="M18.4765 27.2355C18.2106 27.2355 18.0171 26.9933 18.0859 26.7466L19.3909 22.0693C19.4979 21.6855 20.065 21.6855 20.172 22.0693L21.477 26.7466C21.5458 26.9932 21.3523 27.2355 21.0864 27.2355H18.4765Z" fill="#0364FF"/>
</svg>
